HIERARCHY
ROOT Hips
{
	OFFSET -3.958830 18.904000 13.208200
	CHANNELS 6 Xposition Yposition Zposition Zrotation Yrotation Xrotation 
	JOINT LHipJoint
	{
		OFFSET 0.000000 0.000000 0.000000
		CHANNELS 3 Zrotation Yrotation Xrotation
		JOINT LeftUpLeg
		{
			OFFSET 1.800000 -1.400000 0.085000
			CHANNELS 3 Zrotation Yrotation Xrotation
			JOINT LeftLeg
			{
				OFFSET 2.215000 -6.000000 0.000000
				CHANNELS 3 Zrotation Yrotation Xrotation
				JOINT LeftFoot
				{
					OFFSET 2.500000 -6.900000 0.000000
					CHANNELS 3 Zrotation Yrotation Xrotation
					JOINT LeftToeBase
					{
						OFFSET 0.200000 -0.500000 1.950000
						CHANNELS 3 Zrotation Yrotation Xrotation
						End Site
						{
							OFFSET 0.000000 0.000000 0.000000
						}
					}
				}
			}
		}
	}
	JOINT RHipJoint
	{
		OFFSET 0.000000 0.000000 0.000000
		CHANNELS 3 Zrotation Yrotation Xrotation
		JOINT RightUpLeg
		{
			OFFSET -1.800000 -1.400000 0.085000
			CHANNELS 3 Zrotation Yrotation Xrotation
			JOINT RightLeg
			{
				OFFSET -2.215000 -6.000000 0.000000
				CHANNELS 3 Zrotation Yrotation Xrotation
				JOINT RightFoot
				{
					OFFSET -2.500000 -6.900000 0.000000
					CHANNELS 3 Zrotation Yrotation Xrotation
					JOINT RightToeBase
					{
						OFFSET -0.200000 -0.500000 1.950000
						CHANNELS 3 Zrotation Yrotation Xrotation
						End Site
						{
							OFFSET 0.000000 0.000000 0.000000
						}
					}
				}
			}
		}
	}
	JOINT LowerBack
	{
		OFFSET 0.000000 0.000000 0.000000
		CHANNELS 3 Zrotation Yrotation Xrotation
		JOINT Spine
		{
			OFFSET -0.087000 1.940000 -0.288900
			CHANNELS 3 Zrotation Yrotation Xrotation
			JOINT Spine1
			{
				OFFSET 0.000000 1.950000 0.060000
				CHANNELS 3 Zrotation Yrotation Xrotation
				JOINT Neck
				{
					OFFSET 0.000000 0.000000 0.000000
					CHANNELS 3 Zrotation Yrotation Xrotation
					JOINT Neck1
					{
						OFFSET 0.000000 1.600000 0.340000
						CHANNELS 3 Zrotation Yrotation Xrotation
						JOINT Head
						{
							OFFSET 0.000000 1.667000 -0.240000
							CHANNELS 3 Zrotation Yrotation Xrotation
							End Site
							{
								OFFSET 0.000000 0.000000 0.000000
							}
						}
					}
				}
				JOINT LeftShoulder
				{
					OFFSET 0.000000 0.000000 0.000000
					CHANNELS 3 Zrotation Yrotation Xrotation
					JOINT LeftArm
					{
						OFFSET 2.700000 1.550000 -0.730000
						CHANNELS 3 Zrotation Yrotation Xrotation
						JOINT LeftForeArm
						{
							OFFSET 5.450000 0.000000 0.000000
							CHANNELS 3 Zrotation Yrotation Xrotation
							JOINT LeftHand
							{
								OFFSET 3.450000 0.000000 0.000000
								CHANNELS 3 Zrotation Yrotation Xrotation
								JOINT LeftHandIndex1
								{
									OFFSET 0.750000 0.000000 0.000000
									CHANNELS 3 Zrotation Yrotation Xrotation
									End Site
									{
										OFFSET 0.000000 0.000000 0.000000
									}
								}
							}
						}
					}
				}
				JOINT RightShoulder
				{
					OFFSET 0.000000 0.000000 0.000000
					CHANNELS 3 Zrotation Yrotation Xrotation
					JOINT RightArm
					{
						OFFSET -2.700000 1.550000 -0.730000
						CHANNELS 3 Zrotation Yrotation Xrotation
						JOINT RightForeArm
						{
							OFFSET -5.450000 0.000000 0.000000
							CHANNELS 3 Zrotation Yrotation Xrotation
							JOINT RightHand
							{
								OFFSET -3.450000 0.000000 0.000000
								CHANNELS 3 Zrotation Yrotation Xrotation
								JOINT RightHandIndex1
								{
									OFFSET -0.750000 0.000000 0.000000
									CHANNELS 3 Zrotation Yrotation Xrotation
									End Site
									{
										OFFSET 0.000000 0.000000 0.000000
									}
								}
							}
						}
					}
				}
			}
		}
	}
}
MOTION
Frames: 11
Frame Time: 0.016667
0.118540 16.968180 -0.889210 -4.817026 -3.513732 4.321110 -15.040695 12.429930 2.821632 7.931140 -3.429462 -24.295374 -7.641164 8.809390 26.906839 -0.510713 5.747717 2.634128 0.272860 -0.140840 0.287080 18.564079 -10.052844 3.789114 -7.626993 8.557395 -34.024474 8.873697 -14.996324 55.913135 -1.110103 -9.477309 1.217875 0.123110 0.507310 0.173150 -4.171274 -1.113393 -7.717363 11.981991 -1.124642 9.285221 -4.860309 0.017831 6.986599 2.200913 -1.934084 -8.059603 -4.227548 3.150021 29.945415 -3.674480 2.729190 -0.215880 -13.006321 -4.746777 1.740884 -46.923029 -15.523402 -0.506563 -7.120841 -47.909451 1.566943 -3.954759 3.078410 0.272590 0.415130 -0.375200 0.137110 8.500277 6.190282 4.906703 53.238154 11.070525 -7.157693 12.007039 60.411169 3.360830 1.733794 -1.821102 -0.366810 0.232730 0.065780 -0.254980 
0.117030 16.972660 -0.902620 -4.994361 -3.623290 4.156557 -15.030696 12.407133 2.818656 8.216801 -3.389248 -24.360229 -7.747290 8.917120 27.084972 -0.507971 5.799879 2.608288 0.287040 -0.124560 0.296400 18.578113 -10.030248 3.820275 -7.583205 8.735876 -34.158472 8.865977 -15.224969 56.673971 -1.157727 -9.623408 1.171625 0.131090 0.498330 0.176560 -4.206643 -1.097206 -7.747440 12.428189 -1.186653 9.529273 -5.042651 0.030192 7.134358 2.223926 -2.057430 -8.111131 -4.468314 3.220106 30.152970 -3.703860 2.697500 -0.523260 -12.801376 -4.889015 1.745751 -46.666721 -15.969288 -0.391679 -6.271022 -48.618173 1.268772 -3.941564 3.077388 0.279510 0.408250 -0.365070 0.139170 8.222231 6.406225 4.970363 52.925999 11.445716 -7.152949 11.173281 61.454935 3.027484 1.719097 -1.824409 -0.361500 0.233100 0.060640 -0.255730 
0.112820 16.981560 -0.929230 -5.253121 -3.810832 3.797247 -15.016671 12.370782 2.823602 8.702039 -3.334638 -24.488382 -7.960018 9.149894 27.529148 -0.505237 5.919961 2.551971 0.309480 -0.099570 0.309460 18.597560 -9.996806 3.862512 -7.560468 8.994078 -34.294439 8.820417 -15.611983 57.954492 -1.237176 -9.867059 1.098835 0.145520 0.483490 0.177950 -4.255766 -1.075538 -7.803116 13.075866 -1.277536 10.024476 -5.331995 0.069341 7.458667 2.272955 -2.202404 -8.238900 -4.781259 3.359972 30.631969 -3.639390 2.650930 -1.127450 -12.461230 -5.275139 1.805287 -46.082566 -16.701071 -0.326478 -4.314711 -50.338646 0.506118 -3.913385 3.066968 0.297890 0.395120 -0.348810 0.142390 7.750263 6.876221 5.107141 52.315501 12.113631 -7.258950 9.090141 63.420458 2.055911 1.684570 -1.817672 -0.358410 0.239140 0.054850 -0.260340 
0.106080 16.989410 -0.963830 -5.568602 -4.000020 3.487129 -15.002682 12.308197 2.843398 9.322401 -3.295794 -24.847137 -8.255062 9.464094 28.115612 -0.497417 6.086300 2.481225 0.325260 -0.074020 0.309310 18.622952 -9.957531 3.894984 -7.434614 9.256426 -34.459323 8.628969 -15.952658 59.328166 -1.312147 -10.123974 1.022969 0.163990 0.483420 0.178620 -4.315378 -1.031645 -7.851422 13.860186 -1.362862 10.411647 -5.601407 0.111225 7.878002 2.279009 -2.375928 -8.323987 -5.115293 3.479741 30.877621 -3.623380 2.561230 -1.505310 -11.821832 -5.561774 1.818013 -45.525653 -17.902356 -0.015081 -1.417208 -52.319208 -0.715301 -3.893948 3.054925 0.301060 0.394150 -0.344300 0.147960 7.063832 7.249319 5.199193 51.489165 12.983432 -7.301391 5.782811 65.942194 0.329968 1.634959 -1.811310 -0.357250 0.248820 0.054470 -0.258160 
0.095780 16.997050 -1.004650 -5.831476 -4.321269 3.140499 -14.989730 12.240897 2.883517 10.034576 -3.251584 -25.271631 -8.675289 9.871725 28.810291 -0.483320 6.293289 2.392530 0.353810 -0.033050 0.322510 18.646269 -9.936274 3.897313 -7.237882 9.444941 -34.409543 8.320297 -16.070176 60.294022 -1.364289 -10.280860 0.976819 0.192370 0.476030 0.178920 -4.370392 -0.968207 -7.889688 14.595966 -1.382305 10.813513 -5.811475 0.208874 8.363178 2.236674 -2.561945 -8.328611 -5.470869 3.543827 31.081675 -3.683400 2.457110 -2.074640 -11.044440 -5.729961 1.754021 -44.742806 -19.411832 0.459008 2.242135 -54.446639 -2.379200 -3.869827 3.034253 0.301170 0.392170 -0.335760 0.153420 6.338842 7.528218 5.203254 50.358404 14.047491 -7.288683 1.107683 68.702709 -2.382069 1.574806 -1.789238 -0.351850 0.258390 0.045440 -0.257590 
0.080510 17.001790 -1.048750 -5.984397 -4.670360 2.896084 -14.979797 12.161261 2.950922 10.720358 -3.242796 -25.881778 -9.166517 10.330109 29.570737 -0.460631 6.529552 2.297961 0.374100 0.003750 0.323200 18.667236 -9.938854 3.860150 -6.970059 9.494968 -34.180781 7.834361 -15.887076 60.706596 -1.373428 -10.315542 0.968180 0.221670 0.484080 0.180250 -4.418499 -0.873635 -7.907631 15.171111 -1.342664 11.040185 -6.005128 0.319724 8.854058 2.139669 -2.691219 -8.263780 -5.670191 3.572112 30.977535 -3.713390 2.348060 -2.332360 -10.136302 -5.808194 1.654938 -43.652833 -20.984335 0.988064 6.921973 -56.770841 -4.680338 -3.855540 3.008053 0.283830 0.404270 -0.340150 0.161080 5.602560 7.686336 5.122876 49.113294 15.242279 -7.201873 -5.404180 71.282014 -6.501072 1.500189 -1.738359 -0.347120 0.268760 0.041100 -0.250760 
0.062060 17.002660 -1.094280 -5.918548 -5.134989 2.864205 -14.978012 12.071440 3.051842 11.239296 -3.298752 -26.709153 -9.759940 10.823842 30.338339 -0.433462 6.791744 2.205896 0.390320 0.032470 0.315170 18.681379 -9.963640 3.779247 -6.679964 9.386873 -33.853021 7.075770 -15.250484 60.345526 -1.324263 -10.174750 1.014193 0.252990 0.513450 0.187490 -4.445627 -0.758912 -7.899432 15.398247 -1.133066 10.957573 -6.087164 0.517398 9.304422 1.973110 -2.752453 -8.111638 -5.701271 3.543621 30.542312 -3.703420 2.184390 -2.153240 -9.080185 -5.731673 1.489235 -42.572444 -22.755922 1.730510 12.824243 -58.573856 -7.709597 -3.854637 2.966466 0.253140 0.434420 -0.359070 0.177780 4.869754 7.672517 4.950727 47.767258 16.433056 -7.053721 -14.005758 73.511711 -12.241108 1.401516 -1.641194 -0.347420 0.280790 0.037470 -0.239170 
0.038800 16.999870 -1.140320 -5.703415 -5.766021 3.033917 -14.980450 11.972430 3.184965 11.706482 -3.374935 -27.727037 -10.491654 11.381848 31.072778 -0.409262 7.081418 2.107896 0.389240 0.047230 0.289740 18.691904 -10.009238 3.658651 -6.293261 9.168121 -33.345726 6.094648 -14.206223 59.205955 -1.219153 -9.860932 1.111505 0.281860 0.560790 0.190630 -4.462152 -0.620728 -7.869225 15.395788 -0.808798 10.598759 -6.199116 0.776134 9.670880 1.794531 -2.799894 -7.889920 -5.658594 3.596216 29.887236 -3.733870 2.119480 -1.728190 -8.046235 -5.521825 1.294940 -41.384712 -24.364047 2.489478 20.043778 -60.010337 -11.542380 -3.866342 2.894931 0.213650 0.477420 -0.393670 0.191100 4.187130 7.545730 4.677036 46.420530 17.740723 -6.776006 -24.649396 74.976388 -19.384274 1.272883 -1.449199 -0.358020 0.300120 0.048470 -0.225870 
0.012440 16.993300 -1.186500 -5.321661 -6.539231 3.377645 -14.991212 11.860911 3.359577 12.154504 -3.497935 -28.965267 -11.417803 12.067574 31.908037 -0.372684 7.426995 1.990560 0.393130 0.064040 0.269930 18.696046 -10.063921 3.496133 -5.935749 8.799246 -32.654862 5.032026 -12.929509 57.335507 -1.073887 -9.406770 1.251651 0.315270 0.607590 0.194530 -4.459086 -0.480686 -7.823224 15.096150 -0.384627 9.988374 -6.226902 1.066550 9.979839 1.550405 -2.845985 -7.625458 -5.598436 3.697876 29.112134 -3.705340 2.052490 -1.177650 -6.900159 -5.212581 1.107474 -40.234497 -25.947361 3.393073 28.087138 -60.575760 -15.760668 -3.881395 2.804656 0.166230 0.523980 -0.434090 0.203050 3.531358 7.357800 4.302422 45.092943 19.218342 -6.289002 -37.432843 75.490308 -27.620954 1.100408 -1.116212 -0.366770 0.314750 0.056990 -0.214570 
-0.018560 16.986490 -1.235230 -4.721855 -7.398578 3.691330 -15.015706 11.764433 3.557909 12.548448 -3.633360 -30.255351 -12.400536 12.825846 32.824758 -0.329152 7.804884 1.863115 0.392460 0.078950 0.244470 18.683959 -10.124087 3.305228 -5.694327 8.314967 -31.731604 3.966116 -11.613939 55.073110 -0.918041 -8.895544 1.409191 0.347520 0.656730 0.200280 -4.411786 -0.377616 -7.774515 14.283705 0.146013 9.403179 -6.043662 1.420416 10.275514 1.295586 -2.794903 -7.398387 -5.386150 3.834125 28.417649 -3.662420 2.076040 -0.660040 -5.802248 -5.055891 0.956132 -38.883848 -27.430410 4.283098 36.618751 -60.299772 -20.092367 -3.898945 2.691746 0.122190 0.570600 -0.472080 0.215130 2.973585 7.318867 3.950965 43.714526 20.819069 -5.351366 -51.407044 74.357546 -35.646439 0.884488 -0.624897 -0.377660 0.330270 0.069040 -0.201790 
-0.051370 16.981030 -1.285930 -4.054838 -8.303138 3.986074 -15.050831 11.651482 3.793948 13.130294 -3.765829 -31.710707 -13.551919 13.803138 34.031170 -0.256437 8.287972 1.700877 0.397540 0.093760 0.228900 18.664672 -10.170741 3.095264 -5.582108 7.768981 -30.632213 3.117999 -10.482258 52.618317 -0.771565 -8.393109 1.565911 0.376000 0.700690 0.215870 -4.340727 -0.289464 -7.738824 13.267741 0.715068 8.831542 -5.734672 1.819381 10.631483 1.060233 -2.682679 -7.254016 -5.083209 3.880370 27.767430 -3.703210 2.094310 -0.137230 -4.793654 -5.004804 0.813043 -37.409172 -28.839668 5.198555 45.101527 -59.176364 -24.166096 -3.924028 2.584303 0.079260 0.616020 -0.504000 0.227670 2.485904 7.385541 3.779828 42.166373 22.573937 -3.281233 -64.695646 70.897536 -42.118180 0.718162 -0.209093 -0.381020 0.336800 0.076230 -0.189770 
